<svg viewBox="11.721 -0.787 20 20" xmlns="http://www.w3.org/2000/svg">
  <ellipse style="fill: rgb(231, 239, 227);" cx="21.721" cy="9.213" rx="10" ry="10"/>
  <path fill="#d5dcd1" d="M 21.75 8.9 C 24.829 8.9 26.754 5.566 25.214 2.9 C 24.499 1.662 23.179 0.9 21.75 0.9 C 18.671 0.9 16.746 4.234 18.286 6.9 C 19.001 8.138 20.321 8.9 21.75 8.9 Z M 20.322 10.4 C 17.244 10.4 14.75 12.894 14.75 15.972 C 14.75 16.162 14.798 16.362 14.894 16.51 C 14.927 16.562 14.97 16.589 15.013 16.632 C 15.181 16.8 15.41 17.026 15.626 17.165 C 15.851 17.309 16.082 17.49 16.382 17.673 C 17.056 18.083 17.843 18.476 17.843 18.476 L 18.818 18.797 L 19.674 19.006 L 20.66 19.17 L 21.764 19.225 L 22.732 19.174 L 23.833 19 L 24.773 18.753 L 25.434 18.504 L 26.104 18.219 L 26.721 17.88 L 27.49 17.397 L 27.914 17.066 C 28.181 16.884 28.378 16.724 28.53 16.552 C 28.67 16.395 28.75 16.217 28.75 15.972 C 28.75 12.894 26.256 10.4 23.178 10.4 L 20.322 10.4 Z"/>
</svg>
