<?xml version="1.0" encoding="utf-8"?>
<svg height="20px" width="20px" viewBox="0 0 20 20" xmlns="http://www.w3.org/2000/svg">
  <path d="M 15.586 15.008 C 14.723 13.508 13.102 12.5 11.25 12.5 L 8.75 12.5 C 6.898 12.5 5.277 13.508 4.414 15.008 C 5.789 16.539 7.781 17.5 10 17.5 C 12.219 17.5 14.211 16.535 15.586 15.008 Z M 0 10 C 0 2.302 8.333 -2.509 15 1.34 C 18.094 3.126 20 6.427 20 10 C 20 17.698 11.667 22.509 5 18.66 C 1.906 16.874 0 13.573 0 10 Z M 10 10.625 C 12.165 10.625 13.518 8.281 12.436 6.406 C 11.933 5.536 11.005 5 10 5 C 7.835 5 6.482 7.344 7.564 9.219 C 8.067 10.089 8.995 10.625 10 10.625 Z" style="fill: rgb(213, 220, 209);"/>
</svg>