<?xml version="1.0" encoding="utf-8"?>
<svg viewBox="0 0 16 13.714" xmlns="http://www.w3.org/2000/svg">
  <path d="M 0 1.143 C 0 0.511 0.511 0 1.143 0 L 14.857 0 C 15.489 0 16 0.511 16 1.143 C 16 1.775 15.489 2.286 14.857 2.286 L 1.143 2.286 C 0.511 2.286 0 1.775 0 1.143 Z M 0 6.857 C 0 6.225 0.511 5.714 1.143 5.714 L 14.857 5.714 C 15.489 5.714 16 6.225 16 6.857 C 16 7.489 15.489 8 14.857 8 L 1.143 8 C 0.511 8 0 7.489 0 6.857 Z M 16 12.571 C 16 13.204 15.489 13.714 14.857 13.714 L 1.143 13.714 C 0.511 13.714 0 13.204 0 12.571 C 0 11.939 0.511 11.429 1.143 11.429 L 14.857 11.429 C 15.489 11.429 16 11.939 16 12.571 Z" style="fill: rgb(7, 37, 164);"/>
</svg>