<?xml version="1.0" encoding="utf-8"?>
<svg viewBox="0 0 16 12.8" xmlns="http://www.w3.org/2000/svg">
  <path d="M 1.2 1.2 L 3.4 1.2 C 3.733 1.2 4 0.933 4 0.6 C 4 0.267 3.733 0 3.4 0 L 0.8 0 C 0.358 0 0 0.358 0 0.8 L 0 3.4 C 0 3.733 0.268 4 0.6 4 C 0.933 4 1.2 3.733 1.2 3.4 L 1.2 1.2 Z M 4.395 5.6 C 5.319 5.6 5.896 4.6 5.434 3.8 C 5.22 3.429 4.824 3.2 4.395 3.2 C 3.471 3.2 2.894 4.2 3.356 5 C 3.57 5.371 3.966 5.6 4.395 5.6 Z M 3.733 6.4 C 2.998 6.4 2.4 6.998 2.4 7.733 C 2.4 8.1 2.698 8.4 3.068 8.4 L 4.47 8.4 C 4.67 7.547 5.29 6.858 6.1 6.56 C 5.913 6.458 5.695 6.4 5.468 6.4 L 3.733 6.4 Z M 12.933 8.4 C 13.3 8.4 13.6 8.102 13.6 7.733 C 13.6 6.995 13.003 6.4 12.268 6.4 L 10.533 6.4 C 10.303 6.4 10.088 6.458 9.9 6.56 C 10.71 6.858 11.33 7.547 11.53 8.4 L 12.933 8.4 Z M 10.698 8.4 C 10.483 7.793 9.95 7.335 9.3 7.225 C 9.203 7.207 9.103 7.2 9 7.2 L 7 7.2 C 6.898 7.2 6.798 7.207 6.7 7.225 C 6.05 7.335 5.518 7.793 5.303 8.4 C 5.235 8.587 5.2 8.79 5.2 9 C 5.2 9.333 5.468 9.6 5.8 9.6 L 10.2 9.6 C 10.533 9.6 10.8 9.333 10.8 9 C 10.8 8.79 10.765 8.587 10.698 8.4 Z M 11.6 5.6 C 12.524 5.6 13.101 4.6 12.639 3.8 C 12.425 3.429 12.029 3.2 11.6 3.2 C 10.676 3.2 10.099 4.2 10.561 5 C 10.775 5.371 11.171 5.6 11.6 5.6 Z M 9.6 4.8 C 9.6 3.568 8.267 2.799 7.2 3.414 C 6.705 3.7 6.4 4.228 6.4 4.8 C 6.4 6.032 7.733 6.801 8.8 6.186 C 9.295 5.9 9.6 5.372 9.6 4.8 Z M 12.6 1.2 L 14.8 1.2 L 14.8 3.4 C 14.8 3.733 15.068 4 15.4 4 C 15.733 4 16 3.733 16 3.4 L 16 0.8 C 16 0.358 15.643 0 15.2 0 L 12.6 0 C 12.268 0 12 0.267 12 0.6 C 12 0.933 12.268 1.2 12.6 1.2 Z M 1.2 11.6 L 1.2 9.4 C 1.2 9.067 0.933 8.8 0.6 8.8 C 0.268 8.8 0 9.067 0 9.4 L 0 12 C 0 12.442 0.358 12.8 0.8 12.8 L 3.4 12.8 C 3.733 12.8 4 12.533 4 12.2 C 4 11.867 3.733 11.6 3.4 11.6 L 1.2 11.6 Z M 12.6 11.6 C 12.268 11.6 12 11.867 12 12.2 C 12 12.533 12.268 12.8 12.6 12.8 L 15.2 12.8 C 15.643 12.8 16 12.442 16 12 L 16 9.4 C 16 9.067 15.733 8.8 15.4 8.8 C 15.068 8.8 14.8 9.067 14.8 9.4 L 14.8 11.6 L 12.6 11.6 Z" style="fill: rgb(85, 209, 236);"/>
</svg>