<?xml version="1.0" encoding="utf-8"?>
<svg height="12px" width="16px" viewBox="0 0 16 12" xmlns="http://www.w3.org/2000/svg">
  <path d="M 1.5 0 C 0.672 0 0 0.672 0 1.5 C 0 1.972 0.222 2.416 0.6 2.7 L 7.4 7.8 C 7.756 8.066 8.244 8.066 8.6 7.8 L 15.4 2.7 C 15.778 2.416 16 1.972 16 1.5 C 16 0.672 15.328 0 14.5 0 L 1.5 0 Z M 0 3.5 L 0 10 C 0 11.103 0.897 12 2 12 L 14 12 C 15.103 12 16 11.103 16 10 L 16 3.5 L 9.2 8.6 C 8.487 9.134 7.512 9.134 6.8 8.6 L 0 3.5 Z" style="fill: rgb(255, 255, 255);"/>
</svg>