<?xml version="1.0" encoding="utf-8"?>
<svg viewBox="0 0 16 16" xmlns="http://www.w3.org/2000/svg">
  <path d="M 13.001 6.5 C 13.001 7.935 12.535 9.26 11.751 10.335 L 15.707 14.294 C 16.098 14.685 16.098 15.319 15.707 15.71 C 15.316 16.101 14.682 16.101 14.291 15.71 L 10.335 11.751 C 9.26 12.538 7.935 13.001 6.5 13.001 C 2.91 13.001 0 10.091 0 6.5 C 0 2.91 2.91 0 6.5 0 C 10.091 0 13.001 2.91 13.001 6.5 Z M 6.5 11.001 C 9.965 11.001 12.13 7.25 10.398 4.25 C 9.594 2.858 8.108 2 6.5 2 C 3.036 2 0.871 5.75 2.603 8.75 C 3.407 10.143 4.893 11.001 6.5 11.001 Z" style="fill: rgb(255, 255, 255);"/>
</svg>