<?xml version="1.0" encoding="utf-8"?>
<svg viewBox="0 0 16 14.222" xmlns="http://www.w3.org/2000/svg">
  <path d="M 15.996 7.098 C 15.996 7.598 15.579 7.99 15.107 7.99 L 14.218 7.99 L 14.237 12.44 C 14.237 12.515 14.232 12.59 14.223 12.665 L 14.223 13.112 C 14.223 13.726 13.726 14.223 13.112 14.223 L 12.668 14.223 C 12.637 14.223 12.607 14.223 12.576 14.221 C 12.537 14.223 12.498 14.223 12.459 14.223 L 11.557 14.223 L 10.89 14.223 C 10.276 14.223 9.779 13.726 9.779 13.112 L 9.779 12.446 L 9.779 10.668 C 9.779 10.176 9.381 9.779 8.89 9.779 L 7.112 9.779 C 6.62 9.779 6.223 10.176 6.223 10.668 L 6.223 12.446 L 6.223 13.112 C 6.223 13.726 5.725 14.223 5.112 14.223 L 4.445 14.223 L 3.559 14.223 C 3.517 14.223 3.475 14.221 3.434 14.218 C 3.4 14.221 3.367 14.223 3.334 14.223 L 2.889 14.223 C 2.275 14.223 1.778 13.726 1.778 13.112 L 1.778 10.001 C 1.778 9.976 1.778 9.948 1.781 9.923 L 1.781 7.99 L 0.889 7.99 C 0.389 7.99 0 7.601 0 7.098 C 0 6.848 0.083 6.626 0.278 6.431 L 7.401 0.222 C 7.595 0.028 7.817 0 8.012 0 C 8.206 0 8.428 0.056 8.595 0.194 L 15.69 6.431 C 15.912 6.626 16.024 6.848 15.996 7.098 Z" style="fill: rgb(85, 209, 236);"/>
</svg>