<?xml version="1.0" encoding="utf-8"?>
<svg viewBox="0 0 16 16" xmlns="http://www.w3.org/2000/svg">
  <path fill="#55d1ec" d="M 10.5 11 C 13.538 11 16 8.538 16 5.5 C 16 2.463 13.538 0 10.5 0 C 7.463 0 5 2.463 5 5.5 C 5 6.084 5.091 6.65 5.259 7.178 L 0.219 12.219 C 0.078 12.359 0 12.55 0 12.75 L 0 15.25 C 0 15.666 0.334 16 0.75 16 L 3.25 16 C 3.666 16 4 15.666 4 15.25 L 4 14 L 5.25 14 C 5.666 14 6 13.666 6 13.25 L 6 12 L 7.25 12 C 7.45 12 7.641 11.922 7.781 11.781 L 8.822 10.741 C 9.35 10.909 9.916 11 10.5 11 Z M 11.75 3 C 12.712 3 13.314 4.042 12.833 4.875 C 12.609 5.262 12.197 5.5 11.75 5.5 C 10.788 5.5 10.186 4.458 10.667 3.625 C 10.891 3.238 11.303 3 11.75 3 Z"/>
</svg>