<?xml version="1.0" encoding="utf-8"?>
<svg viewBox="0 0 16 14" xmlns="http://www.w3.org/2000/svg">
  <path d="M 6.809 2.309 L 10.647 6.147 C 10.872 6.372 11 6.681 11 7 C 11 7.319 10.872 7.628 10.647 7.853 L 6.809 11.691 C 6.609 11.891 6.341 12 6.059 12 C 5.475 12 5 11.525 5 10.941 L 5 9 L 1 9 C 0.447 9 0 8.553 0 8 L 0 6 C 0 5.447 0.447 5 1 5 L 5 5 L 5 3.059 C 5 2.475 5.475 2 6.059 2 C 6.341 2 6.609 2.113 6.809 2.309 Z M 11 12 L 13 12 C 13.553 12 14 11.553 14 11 L 14 3 C 14 2.447 13.553 2 13 2 L 11 2 C 10.447 2 10 1.553 10 1 C 10 0.447 10.447 0 11 0 L 13 0 C 14.656 0 16 1.344 16 3 L 16 11 C 16 12.656 14.656 14 13 14 L 11 14 C 10.447 14 10 13.553 10 13 C 10 12.447 10.447 12 11 12 Z" style="fill: rgb(85, 209, 236);"/>
</svg>