<?xml version="1.0" encoding="utf-8"?>
<svg viewBox="5008.6341 7098.2209 9000 3769.5784" xmlns="http://www.w3.org/2000/svg">
  <g id="Camada_x0020_1" transform="matrix(1, 0, 0, 1, -949.5558471679678, 5591.8291015625)">
    <g id="_2269982263104">
      <g>
        <path d="M11728.44 2511.35c-70.57,8.07 -104.21,53.45 -160.48,111.27 -131.05,134.65 -271.61,268.75 -403.62,404.38 -23,23.64 -43.53,44.55 -66.94,67.74 -106.81,105.8 -115.89,80.98 -320.15,81.89 -44.87,0.2 -89.79,-0.13 -134.67,-0.19 -36.32,-0.04 -97.85,9.82 -120.11,-12.29 -12.62,-12.53 -31.89,-67.83 43.04,-68.2 78.86,-0.39 366.66,5.67 404.71,-5.42 60.04,-17.49 118.38,-84.18 97.64,-167.73 -17.97,-72.38 -72.59,-110.16 -159.78,-110.2 -52.51,-0.02 -364.57,3.65 -401.87,-2.45 -49.3,-8.05 -149.56,-79.19 -302.99,-100.64 -159.48,-22.3 -330.43,1.96 -456.48,69.69 -30.14,16.2 -59.03,30.52 -84.54,49.97 -22.74,17.35 -60.14,41.18 -70.21,64.77 -18.43,43.19 47.55,89.01 72.74,119.77 39.28,47.94 117.2,125.71 161.95,176.5l257.61 281.16c21.68,23.97 63.75,14.72 119.65,14.97l677.2 -0.13c68.71,0.06 199.45,10.12 250.79,-18.32 49.87,-27.62 216.92,-205.22 276.17,-262.48 43.74,-42.28 98.47,-87.93 136.9,-132.58 31.27,-36.33 159.8,-155.58 204.23,-199.65l66.85 -67.71c55.15,-49.44 97.05,-101.63 72.15,-187.53 -17.53,-60.44 -78.95,-115.82 -159.79,-106.59z" style="fill: rgb(7, 37, 164);"/>
        <path d="M10505.18 1507.43c-263.8,16.57 -469.19,232.37 -453.96,516.85 13.94,260.24 239.58,467.67 518.36,451.21 266.48,-15.73 468.87,-237 450.34,-520.57 -16.96,-259.42 -236.33,-464.97 -514.74,-447.49z" style="fill: rgb(7, 37, 164);"/>
        <path d="M10481.65 1592.11c-384.7,52.92 -462.62,539.31 -169.16,735.28 79.97,53.4 182.11,77.5 279.69,65.67 206.11,-25.01 373.28,-214.6 343.44,-453.71 -15.05,-120.6 -79.52,-207.26 -144.3,-259.98 -74.71,-60.79 -180.53,-105.03 -309.67,-87.26z" style="fill: rgb(255, 255, 255);"/>
        <path d="M9404.02 2930.61l-261.67 260.03c-20.34,33.14 12.24,58 30.41,76.46l81.89 87.38c51.98,63.25 180.43,188.79 246.22,265.59l162.45 176.07c14.69,14.26 36.17,53.97 72.82,38.47 17.3,-7.32 201.96,-194.09 229.09,-221.35 63.06,-63.36 81.88,-65.28 20.69,-132.08l-492.53 -538.85c-29.93,-35.51 -48.37,-47.44 -89.37,-11.72z" style="fill: rgb(7, 37, 164);"/>
        <path d="M10503.82 1652.91c-81.31,8.36 -124.65,29.33 -183.4,72.27 -42.41,31 -86.58,96.77 -104.36,149.69 -15.39,45.82 -22.49,99.05 -17.73,151.99 15.87,176.81 175.34,325.79 374.94,304.82 179.05,-18.81 323.38,-171.19 302.34,-374.25 -18.57,-179.35 -170.48,-325.2 -371.79,-304.52z" style="fill: rgb(7, 37, 164);"/>
        <path d="M11023.5 3563.21l-846.49 -0.04c-31.96,0.03 -66.84,-1.89 -65.89,34.72 1.41,53.96 88.45,41.95 146.69,42.06l727.22 0.05c183.26,0.04 203.33,-29.55 294.37,-120.79l210.07 -205.71c22.42,-29.71 -7.82,-62.48 -36.34,-48.05 -15.78,7.99 -211.88,221.44 -264.22,255.49 -50.6,32.91 -93.14,42.23 -165.41,42.27z" style="fill: rgb(7, 37, 164);"/>
        <path d="M10497.43 1763.38c-112.85,8.99 -190.66,162.66 6.91,252.78l1.71 125.18c-55.52,-9.79 -55.29,-41.38 -81.93,-70.68 -70.7,-5.04 -45.21,52.97 -20.06,80.66 25.38,27.94 53.07,47.75 99.67,58.05 0.17,29.73 0.92,56.82 31.38,58.51 33.65,1.86 32.84,-29.86 31.35,-58.43 37.75,-15.98 51.45,-13.06 79.74,-39.08 18.82,-17.31 37.8,-51.97 32.03,-92.23 -4.36,-30.39 -26.44,-59.53 -44.91,-75.26 -8.42,-7.18 -24.46,-17.73 -36.57,-25.09l-30.62 -15.61c-10.55,-7.26 -3.37,-1.1 -8.77,-8.37l-2.51 -124.59c33.88,3.05 44.25,21.88 59.16,39.18 19.93,23.12 55.68,23.91 57.61,-9.9 2.44,-42.7 -64.14,-86.59 -108.64,-96.67 -3.49,-26.04 -5.68,-49.44 -32.41,-51.37 -32.88,-2.37 -33.23,23.67 -33.14,52.92z" style="fill: rgb(255, 255, 255);"/>
        <path d="M10094.67 2924.24c-20.37,3.59 -32.15,9.75 -35.89,28.53 -12.92,64.94 76.49,49.15 133.62,49.25 83.37,0.13 166.73,0.01 250.1,0.07 82.08,0.05 164.17,-0.04 246.25,-0.03 44.78,0 217.73,5.46 248.4,-2.44 37.45,-9.64 42.82,-57.91 14.95,-72.63 -19.99,-10.56 -549.99,-4.62 -613.49,-4.53 -59.64,0.07 -193.47,-7.11 -243.94,1.78z" fill="white"/>
        <path d="M11529.07 2454.62c-32.76,8.26 -89.14,68.47 -113.15,96.79l-130.14 131.52c-25.21,24.69 -124.5,117.9 -127.98,134.54 -6.98,33.51 23.64,59.1 54.9,46.4 14.08,-5.72 109.99,-101.94 132.16,-125.67l26.62 -27.32c30.48,-28.22 203.14,-195.84 208.51,-211.43 11.36,-33.02 -20.17,-52.57 -50.92,-44.83z" style="fill: rgb(7, 37, 164);"/>
        <path d="M11341.1 2418.12c-29.83,8 -73.79,59.08 -92.6,77.45l-171.7 170.76c-59.09,59.16 -1.68,94.53 29.64,79.97 30.52,-14.18 137.31,-132.86 174.89,-167.77 29.67,-27.58 58.18,-54.26 87.05,-82.45 12.96,-12.67 36.76,-28.39 32.34,-51.51 -4.26,-22.25 -32.09,-33.83 -59.62,-26.45z" style="fill: rgb(7, 37, 164);"/>
        <path d="M9761.16 2038.29c-34.19,13.06 -27.05,65.32 11.91,70.46 19.4,2.55 104.23,2.51 118.37,-4.25 30.41,-14.55 29.07,-63.78 -10.62,-68.66 -18.67,-2.29 -106.66,-2.51 -119.66,2.45z" style="fill: rgb(7, 37, 164);"/>
        <path d="M11180.38 2038.53c-32.93,14.48 -24.09,63.14 13.07,69.5 20.51,3.5 102.5,3.38 118.18,-3.26 32.27,-13.65 28.57,-63.76 -11.14,-69.1 -18.75,-2.52 -107.86,-2.53 -120.11,2.86z" style="fill: rgb(7, 37, 164);"/>
        <path d="M9739.33 1873.53c-36.96,14.28 -27.11,62.84 7.45,68.7 16.81,2.86 110.59,2.51 122.73,-2.3 34.57,-13.67 24.48,-62.84 -8.52,-68.9 -17.24,-3.16 -108.78,-2.47 -121.66,2.5z" style="fill: rgb(7, 37, 164);"/>
        <path d="M11204.57 1873.04c-36.8,14.74 -26.68,62.41 4.88,69.08 13.38,2.83 106.53,1.7 117.86,-2.36 34.4,-12.32 30.95,-61.31 -4.27,-68.72 -17.08,-3.59 -105.54,-3.17 -118.47,2z" style="fill: rgb(7, 37, 164);"/>
        <path d="M10559.93 2140.36c81.24,-14.79 61.43,-89.2 -2.44,-105.46l2.44 105.46z" style="fill: rgb(7, 37, 164);"/>
        <path d="M10500.9 1941.02l-2.16 -109.9c-28.05,0.5 -51.29,24.05 -47.98,53.97 2.76,25.02 28.08,48.55 50.14,55.93z" style="fill: rgb(7, 37, 164);"/>
        <path d="M9753.56 3512.37c-18.2,1.87 -27.89,6.56 -41.04,16.17 -9.48,6.93 -19.37,21.65 -23.34,33.49 -3.45,10.25 -5.04,22.16 -3.97,34 3.55,39.56 39.23,72.89 83.88,68.2 40.06,-4.21 72.35,-38.3 67.64,-83.73 -4.15,-40.13 -38.14,-72.76 -83.17,-68.13z" fill="white"/>
      </g>
      <path fill-rule="nonzero" d="M5972.76 4970.6l0 -114.84 101.63 -19.7 0 -685.23 -101.63 -19.7 0 -115.51 101.63 0 191.62 0 115.29 0 0 115.51 -115.29 19.7 0 672.92 269.53 0 9.17 -139.69 146.18 0 0 286.54 -718.13 0zm787.08 0l0 -114.84 101.63 -19.7 0 -685.23 -101.63 -19.7 0 -115.51 101.63 0 283.41 0 260.35 665.75 3.8 0 251.84 -665.75 385.71 0 0 115.51 -102.3 19.7 0 685.23 102.3 19.7 0 114.84 -395.33 0 0 -114.84 106.78 -19.7 0 -182.89 3.35 -430.93 -4.03 -0.67 -285.19 735.82 -145.06 0 -291.69 -729.78 -4.03 0.68 11.2 405.18 0 202.59 112.82 19.7 0 114.84 -395.56 0zm1589.14 0l0 -74.65 66.06 -12.8 0 -445.4 -66.06 -12.8 0 -75.09 481.77 0 0 167.63 -95.6 0 -5.52 -71.59 -190.04 -0.44 0 156.42 209.68 0 0.44 95.89 -210.12 0 0 177.38 200.37 0 5.52 -74.21 94.15 0.43 0.44 169.23 -491.09 0zm557.58 0l0 -74.65 66.06 -12.8 0 -445.4 -66.06 -12.8 0 -75.09 66.06 0 184.22 0 169.22 432.74 2.47 0 163.7 -432.74 250.71 0 0 75.09 -66.5 12.8 0 445.4 66.5 12.8 0 74.65 -256.97 0 0 -74.65 69.41 -12.8 0 -118.88 2.18 -280.1 -2.62 -0.44 -185.37 478.28 -94.29 0 -189.6 -474.35 -2.62 0.44 7.28 263.37 0 131.68 73.33 12.8 0 74.65 -257.11 0zm880.76 0l0 -74.65 66.06 -12.8 0 -445.4 -66.06 -12.8 0 -75.09 66.06 0 229.32 0c47.58,0 88.47,8.44 122.81,25.03 34.34,16.59 60.82,39.72 79.3,69.41 18.48,29.68 27.65,64.31 27.65,103.89 0,39.43 -9.17,74.06 -27.65,103.75 -18.48,29.68 -44.96,52.67 -79.3,69.11 -34.34,16.3 -75.23,24.45 -122.81,24.45l-104.77 0 0 137.65 66.5 12.8 0 74.65 -257.11 0zm190.61 -320.99l104.77 0c34.78,0 60.97,-9.46 78.72,-28.38 17.75,-18.91 26.63,-42.92 26.63,-72.17 0,-29.97 -8.88,-54.56 -26.63,-74.06 -17.75,-19.5 -43.94,-29.1 -78.72,-29.1l-104.77 0 0 203.71zm374.25 320.99l0 -74.65 66.06 -12.8 0 -445.4 -66.06 -12.8 0 -75.09 294.22 0c47.72,0 88.61,7.42 122.66,22.27 34.19,14.69 60.39,35.94 78.72,63.44 18.33,27.64 27.5,60.67 27.5,99.38 0,36.38 -9.17,68.82 -27.35,97.63 -18.19,28.67 -43.51,51.22 -75.81,67.81 -32.45,16.44 -69.85,24.74 -112.19,25.03l-117.14 0 0 157.73 66.5 12.8 0 74.65 -257.11 0zm399.42 0l-104.48 -268.17 112.19 -27.65 90.36 208.81 52.82 12.36 0 74.65 -150.89 0zm-208.81 -341.07l101.43 0c35.79,0 62.56,-7.57 80.31,-22.7 17.76,-15.28 26.63,-37.4 26.63,-66.35 0,-28.67 -8.73,-51.66 -26.33,-68.83 -17.61,-17.17 -43.8,-25.75 -78.43,-25.75l-103.61 0 0 183.63zm409.61 341.07l0 -74.65 66.06 -12.8 0 -445.4 -66.06 -12.8 0 -75.09 481.78 0 0 167.63 -95.6 0 -5.53 -71.59 -190.04 -0.44 0 156.42 209.68 0 0.44 95.89 -210.12 0 0 177.38 200.37 0 5.53 -74.21 94.14 0.43 0.44 169.23 -491.09 0zm180.72 -668.9l84.83 -116.26 131.83 0 0.73 2.47 -117.57 113.79 -96.33 0 -3.49 0zm630.05 677.92c-45.69,0 -87.31,-5.24 -124.85,-15.42 -37.54,-10.19 -74.5,-27.94 -110.87,-53.26l0 -150.02 96.32 0 13.24 88.18c12.81,10.77 30.41,19.5 52.82,26.19 22.56,6.69 47,10.04 73.34,10.04 22.55,0 41.47,-3.05 56.89,-9.31 15.57,-6.26 27.36,-15.13 35.51,-26.63 8,-11.64 12.07,-25.17 12.07,-40.74 0,-14.84 -3.63,-27.94 -10.91,-39.43 -7.13,-11.5 -19.06,-22.12 -35.79,-31.58 -16.59,-9.6 -39.15,-18.62 -67.52,-27.5 -49.18,-14.55 -89.92,-30.41 -122.08,-47.58 -32.3,-17.17 -56.46,-37.69 -72.46,-61.84 -16.16,-24.01 -24.16,-52.82 -24.16,-86.72 0,-33.47 9.31,-63.15 27.94,-88.91 18.63,-25.61 44.38,-45.83 77.41,-60.68 32.88,-14.84 71.01,-22.4 114.22,-22.99 47.73,-0.58 89.93,5.1 126.74,17.03 36.81,11.93 68.68,28.52 95.31,49.91l0 139.83 -93.27 0 -16.3 -85.27c-10.77,-6.84 -25.32,-12.8 -43.65,-17.89 -18.34,-5.1 -39.14,-7.72 -62.42,-7.72 -19.94,0 -37.55,2.91 -52.68,8.88 -15.28,6.11 -27.21,14.7 -36.08,26.05 -8.73,11.34 -13.1,25.17 -13.1,41.32 0,13.97 3.78,26.19 11.5,36.52 7.56,10.33 20.51,20.23 38.55,29.39 18.05,9.17 42.93,19.07 74.8,29.69 68.53,18.91 120.48,44.09 155.83,75.37 35.36,31.29 52.97,72.32 52.97,123.25 0,35.21 -9.46,65.77 -28.52,91.37 -19.06,25.76 -45.69,45.55 -80.18,59.52 -34.33,13.97 -74.49,20.95 -120.62,20.95zm421.25 -9.02l0 -74.65 66.49 -12.8 0 -437.25 -113.06 0 -6.84 74.06 -94.14 0 0 -170.1 553.8 0 0 170.1 -94.72 0 -6.84 -74.06 -113.79 0 0 437.25 66.93 12.8 0 74.65 -257.83 0zm449.18 0l0 -74.65 66.06 -12.8 0 -445.4 -66.06 -12.8 0 -75.09 256.67 0 0 75.09 -66.06 12.8 0 445.4 66.06 12.8 0 74.65 -256.67 0zm304.4 0l0 -74.65 66.06 -12.8 0 -445.4 -66.06 -12.8 0 -75.09 66.06 0 184.21 0 169.23 432.74 2.47 0 163.7 -432.74 250.71 0 0 75.09 -66.5 12.8 0 445.4 66.5 12.8 0 74.65 -256.97 0 0 -74.65 69.41 -12.8 0 -118.88 2.18 -280.1 -2.62 -0.44 -185.38 478.28 -94.29 0 -189.59 -474.35 -2.62 0.44 7.27 263.37 0 131.68 73.34 12.8 0 74.65 -257.11 0zm1165.08 9.02c-41.76,0 -79.89,-7.86 -114.23,-23.57 -34.34,-15.57 -64.02,-37.54 -88.9,-65.77 -24.88,-28.38 -43.94,-61.55 -57.33,-99.82 -13.39,-38.12 -20.08,-80.03 -20.08,-125.57l0 -9.31c0,-45.26 6.69,-86.87 20.08,-125.14 13.39,-38.27 32.45,-71.59 57.18,-99.96 24.74,-28.38 54.28,-50.5 88.62,-66.07 34.34,-15.56 72.46,-23.42 114.22,-23.42 42.05,0 80.47,7.86 115.1,23.42 34.78,15.57 64.6,37.69 89.48,66.07 25.03,28.37 44.39,61.69 57.77,99.96 13.53,38.27 20.37,79.88 20.37,125.14l0 9.31c0,45.54 -6.84,87.45 -20.37,125.57 -13.38,38.27 -32.74,71.44 -57.77,99.82 -24.88,28.23 -54.7,50.2 -89.19,65.77 -34.63,15.71 -72.9,23.57 -114.95,23.57zm0 -96.91c35.21,0 64.6,-9.02 87.89,-27.21 23.28,-18.19 40.74,-43.65 52.52,-76.24 11.93,-32.74 17.76,-70.87 17.76,-114.37l0 -10.19c0,-42.92 -5.97,-80.61 -17.9,-113.2 -11.93,-32.45 -29.69,-57.92 -53.11,-76.1 -23.43,-18.19 -52.68,-27.21 -87.6,-27.21 -34.63,0 -63.44,9.02 -86.43,27.06 -23.14,18.04 -40.31,43.22 -51.8,75.67 -11.64,32.44 -17.32,70.27 -17.32,113.78l0 10.19c0,43.5 5.68,81.63 17.32,114.37 11.49,32.59 28.81,58.05 51.94,76.24 23.14,18.19 52.1,27.21 86.73,27.21zm585.23 96.91c-45.69,0 -87.31,-5.24 -124.85,-15.42 -37.54,-10.19 -74.5,-27.94 -110.87,-53.26l0 -150.02 96.32 0 13.24 88.18c12.81,10.77 30.41,19.5 52.82,26.19 22.56,6.69 47,10.04 73.34,10.04 22.55,0 41.47,-3.05 56.89,-9.31 15.57,-6.26 27.36,-15.13 35.51,-26.63 8,-11.64 12.07,-25.17 12.07,-40.74 0,-14.84 -3.63,-27.94 -10.91,-39.43 -7.13,-11.5 -19.06,-22.12 -35.79,-31.58 -16.59,-9.6 -39.15,-18.62 -67.52,-27.5 -49.18,-14.55 -89.92,-30.41 -122.08,-47.58 -32.3,-17.17 -56.46,-37.69 -72.46,-61.84 -16.16,-24.01 -24.16,-52.82 -24.16,-86.72 0,-33.47 9.31,-63.15 27.94,-88.91 18.63,-25.61 44.38,-45.83 77.41,-60.68 32.88,-14.84 71.01,-22.4 114.22,-22.99 47.73,-0.58 89.93,5.1 126.74,17.03 36.81,11.93 68.68,28.52 95.31,49.91l0 139.83 -93.27 0 -16.3 -85.27c-10.77,-6.84 -25.32,-12.8 -43.65,-17.89 -18.34,-5.1 -39.14,-7.72 -62.42,-7.72 -19.94,0 -37.55,2.91 -52.68,8.88 -15.28,6.11 -27.21,14.7 -36.08,26.05 -8.73,11.34 -13.1,25.17 -13.1,41.32 0,13.97 3.78,26.19 11.5,36.52 7.56,10.33 20.51,20.23 38.55,29.39 18.05,9.17 42.93,19.07 74.8,29.69 68.53,18.91 120.48,44.09 155.83,75.37 35.36,31.29 52.97,72.32 52.97,123.25 0,35.21 -9.46,65.77 -28.52,91.37 -19.06,25.76 -45.69,45.55 -80.18,59.52 -34.33,13.97 -74.49,20.95 -120.62,20.95z" style="fill: rgb(227, 11, 23);"/>
      <polygon points="14958.19,5082.13 5958.19,5082.13 5958.19,5275.97 14958.19,5275.97 " style="fill: rgb(7, 37, 164);"/>
    </g>
  </g>
</svg>