<?xml version="1.0" encoding="utf-8"?>
<svg viewBox="7529.8452 7806.7694 31.9986 27.0366" xmlns="http://www.w3.org/2000/svg">
  <g id="Camada_x0020_1" transform="matrix(0.011595001444220543, 0, 0, 0.011595001444220543, 7423.91455078125, 7789.302734375)">
    <g>
      <path d="M 10505.18 1507.43 C 10241.38 1524 10035.99 1739.8 10051.22 2024.28 C 10065.16 2284.52 10290.8 2491.95 10569.58 2475.49 C 10836.06 2459.76 11038.45 2238.49 11019.92 1954.92 C 11002.96 1695.5 10783.59 1489.95 10505.18 1507.43 L 10505.18 1507.43 Z" style="fill: rgb(85, 209, 236);"/>
      <path d="M 10481.65 1592.11 C 10096.95 1645.03 10019.03 2131.42 10312.49 2327.39 C 10392.46 2380.79 10494.6 2404.89 10592.18 2393.06 C 10798.29 2368.05 10965.46 2178.46 10935.62 1939.35 C 10920.57 1818.75 10856.1 1732.09 10791.32 1679.37 C 10716.61 1618.58 10610.79 1574.34 10481.65 1592.11 L 10481.65 1592.11 Z" style="fill: rgb(231, 239, 227);"/>
      <path d="M 10503.82 1652.91 C 10422.51 1661.27 10379.17 1682.24 10320.42 1725.18 C 10278.01 1756.18 10233.84 1821.95 10216.06 1874.87 C 10200.67 1920.69 10193.57 1973.92 10198.33 2026.86 C 10214.2 2203.67 10373.67 2352.65 10573.27 2331.68 C 10752.32 2312.87 10896.65 2160.49 10875.61 1957.43 C 10857.04 1778.08 10705.13 1632.23 10503.82 1652.91 L 10503.82 1652.91 Z" style="fill: rgb(85, 209, 236);"/>
      <path d="M 10497.43 1763.38 C 10384.58 1772.37 10306.77 1926.04 10504.34 2016.16 L 10506.05 2141.34 C 10450.53 2131.55 10450.76 2099.96 10424.12 2070.66 C 10353.42 2065.62 10378.91 2123.63 10404.06 2151.32 C 10429.44 2179.26 10457.13 2199.07 10503.73 2209.37 C 10503.9 2239.1 10504.65 2266.19 10535.11 2267.88 C 10568.76 2269.74 10567.95 2238.02 10566.46 2209.45 C 10604.21 2193.47 10617.91 2196.39 10646.2 2170.37 C 10665.02 2153.06 10684 2118.4 10678.23 2078.14 C 10673.87 2047.75 10651.79 2018.61 10633.32 2002.88 C 10624.9 1995.7 10608.86 1985.15 10596.75 1977.79 L 10566.13 1962.18 C 10555.58 1954.92 10562.76 1961.08 10557.36 1953.81 L 10554.85 1829.22 C 10588.73 1832.27 10599.1 1851.1 10614.01 1868.4 C 10633.94 1891.52 10669.69 1892.31 10671.62 1858.5 C 10674.06 1815.8 10607.48 1771.91 10562.98 1761.83 C 10559.49 1735.79 10557.3 1712.39 10530.57 1710.46 C 10497.69 1708.09 10497.34 1734.13 10497.43 1763.38 L 10497.43 1763.38 Z" style="fill: rgb(231, 239, 227);"/>
      <path d="M 9761.16 2038.29 C 9726.97 2051.35 9734.11 2103.61 9773.07 2108.75 C 9792.47 2111.3 9877.3 2111.26 9891.44 2104.5 C 9921.85 2089.95 9920.51 2040.72 9880.82 2035.84 C 9862.15 2033.55 9774.16 2033.33 9761.16 2038.29 Z" style="fill: rgb(85, 209, 236);"/>
      <path d="M 11180.38 2038.53 C 11147.45 2053.01 11156.29 2101.67 11193.45 2108.03 C 11213.96 2111.53 11295.95 2111.41 11311.63 2104.77 C 11343.9 2091.12 11340.2 2041.01 11300.49 2035.67 C 11281.74 2033.15 11192.63 2033.14 11180.38 2038.53 L 11180.38 2038.53 Z" style="fill: rgb(85, 209, 236);"/>
      <path d="M 9739.33 1873.53 C 9702.37 1887.81 9712.22 1936.37 9746.78 1942.23 C 9763.59 1945.09 9857.37 1944.74 9869.51 1939.93 C 9904.08 1926.26 9893.99 1877.09 9860.99 1871.03 C 9843.75 1867.87 9752.21 1868.56 9739.33 1873.53 Z" style="fill: rgb(85, 209, 236);"/>
      <path d="M11204.57 1873.04c-36.8,14.74 -26.68,62.41 4.88,69.08 13.38,2.83 106.53,1.7 117.86,-2.36 34.4,-12.32 30.95,-61.31 -4.27,-68.72 -17.08,-3.59 -105.54,-3.17 -118.47,2z" style="fill: rgb(85, 209, 236);"/>
      <path d="M 10559.93 2140.36 C 10641.17 2125.57 10621.36 2051.16 10557.49 2034.9 L 10559.93 2140.36 Z" style="fill: rgb(85, 209, 236);"/>
      <path d="M10500.9 1941.02l-2.16 -109.9c-28.05,0.5 -51.29,24.05 -47.98,53.97 2.76,25.02 28.08,48.55 50.14,55.93z" style="fill: rgb(85, 209, 236);"/>
    </g>
    <g>
      <path d="M11728.44 2511.35c-70.57,8.07 -104.21,53.45 -160.48,111.27 -131.05,134.65 -271.61,268.75 -403.62,404.38 -23,23.64 -43.53,44.55 -66.94,67.74 -106.81,105.8 -115.89,80.98 -320.15,81.89 -44.87,0.2 -89.79,-0.13 -134.67,-0.19 -36.32,-0.04 -97.85,9.82 -120.11,-12.29 -12.62,-12.53 -31.89,-67.83 43.04,-68.2 78.86,-0.39 366.66,5.67 404.71,-5.42 60.04,-17.49 118.38,-84.18 97.64,-167.73 -17.97,-72.38 -72.59,-110.16 -159.78,-110.2 -52.51,-0.02 -364.57,3.65 -401.87,-2.45 -49.3,-8.05 -149.56,-79.19 -302.99,-100.64 -159.48,-22.3 -330.43,1.96 -456.48,69.69 -30.14,16.2 -59.03,30.52 -84.54,49.97 -22.74,17.35 -60.14,41.18 -70.21,64.77 -18.43,43.19 47.55,89.01 72.74,119.77 39.28,47.94 117.2,125.71 161.95,176.5l257.61 281.16c21.68,23.97 63.75,14.72 119.65,14.97l677.2 -0.13c68.71,0.06 199.45,10.12 250.79,-18.32 49.87,-27.62 216.92,-205.22 276.17,-262.48 43.74,-42.28 98.47,-87.93 136.9,-132.58 31.27,-36.33 159.8,-155.58 204.23,-199.65l66.85 -67.71c55.15,-49.44 97.05,-101.63 72.15,-187.53 -17.53,-60.44 -78.95,-115.82 -159.79,-106.59z" style="fill: rgb(85, 209, 236);"/>
      <path d="M9404.02 2930.61l-261.67 260.03c-20.34,33.14 12.24,58 30.41,76.46l81.89 87.38c51.98,63.25 180.43,188.79 246.22,265.59l162.45 176.07c14.69,14.26 36.17,53.97 72.82,38.47 17.3,-7.32 201.96,-194.09 229.09,-221.35 63.06,-63.36 81.88,-65.28 20.69,-132.08l-492.53 -538.85c-29.93,-35.51 -48.37,-47.44 -89.37,-11.72z" style="fill: rgb(85, 209, 236);"/>
      <path d="M11023.5 3563.21l-846.49 -0.04c-31.96,0.03 -66.84,-1.89 -65.89,34.72 1.41,53.96 88.45,41.95 146.69,42.06l727.22 0.05c183.26,0.04 203.33,-29.55 294.37,-120.79l210.07 -205.71c22.42,-29.71 -7.82,-62.48 -36.34,-48.05 -15.78,7.99 -211.88,221.44 -264.22,255.49 -50.6,32.91 -93.14,42.23 -165.41,42.27z" style="fill: rgb(85, 209, 236);"/>
      <path d="M10094.67 2924.24c-20.37,3.59 -32.15,9.75 -35.89,28.53 -12.92,64.94 76.49,49.15 133.62,49.25 83.37,0.13 166.73,0.01 250.1,0.07 82.08,0.05 164.17,-0.04 246.25,-0.03 44.78,0 217.73,5.46 248.4,-2.44 37.45,-9.64 42.82,-57.91 14.95,-72.63 -19.99,-10.56 -549.99,-4.62 -613.49,-4.53 -59.64,0.07 -193.47,-7.11 -243.94,1.78z" style="fill: rgb(231, 239, 227);"/>
      <path d="M11529.07 2454.62c-32.76,8.26 -89.14,68.47 -113.15,96.79l-130.14 131.52c-25.21,24.69 -124.5,117.9 -127.98,134.54 -6.98,33.51 23.64,59.1 54.9,46.4 14.08,-5.72 109.99,-101.94 132.16,-125.67l26.62 -27.32c30.48,-28.22 203.14,-195.84 208.51,-211.43 11.36,-33.02 -20.17,-52.57 -50.92,-44.83z" style="fill: rgb(85, 209, 236);"/>
      <path d="M11341.1 2418.12c-29.83,8 -73.79,59.08 -92.6,77.45l-171.7 170.76c-59.09,59.16 -1.68,94.53 29.64,79.97 30.52,-14.18 137.31,-132.86 174.89,-167.77 29.67,-27.58 58.18,-54.26 87.05,-82.45 12.96,-12.67 36.76,-28.39 32.34,-51.51 -4.26,-22.25 -32.09,-33.83 -59.62,-26.45z" style="fill: rgb(85, 209, 236);"/>
      <path d="M9753.56 3512.37c-18.2,1.87 -27.89,6.56 -41.04,16.17 -9.48,6.93 -19.37,21.65 -23.34,33.49 -3.45,10.25 -5.04,22.16 -3.97,34 3.55,39.56 39.23,72.89 83.88,68.2 40.06,-4.21 72.35,-38.3 67.64,-83.73 -4.15,-40.13 -38.14,-72.76 -83.17,-68.13z" style="fill: rgb(231, 239, 227);"/>
    </g>
  </g>
</svg>