<?xml version="1.0" encoding="utf-8"?>
<svg viewBox="0 0 16 12.4" xmlns="http://www.w3.org/2000/svg">
  <path d="M 1.778 0 C 0.797 0 0 0.797 0 1.778 L 0 10.667 C 0 11.647 0.797 12.444 1.778 12.444 L 14.222 12.444 C 15.203 12.444 16 11.647 16 10.667 L 16 1.778 C 16 0.797 15.203 0 14.222 0 L 1.778 0 Z M 4 7.111 L 5.778 7.111 C 7.006 7.111 8 8.106 8 9.333 C 8 9.578 7.8 9.778 7.556 9.778 L 2.222 9.778 C 1.978 9.778 1.778 9.578 1.778 9.333 C 1.778 8.106 2.772 7.111 4 7.111 Z M 3.111 4.444 C 3.111 3.076 4.593 2.221 5.778 2.905 C 6.328 3.222 6.667 3.809 6.667 4.444 C 6.667 5.813 5.185 6.668 4 5.984 C 3.45 5.666 3.111 5.08 3.111 4.444 Z M 10.222 3.556 L 13.778 3.556 C 14.022 3.556 14.222 3.756 14.222 4 C 14.222 4.244 14.022 4.444 13.778 4.444 L 10.222 4.444 C 9.978 4.444 9.778 4.244 9.778 4 C 9.778 3.756 9.978 3.556 10.222 3.556 Z M 10.222 5.333 L 13.778 5.333 C 14.022 5.333 14.222 5.533 14.222 5.778 C 14.222 6.022 14.022 6.222 13.778 6.222 L 10.222 6.222 C 9.978 6.222 9.778 6.022 9.778 5.778 C 9.778 5.533 9.978 5.333 10.222 5.333 Z M 10.222 7.111 L 13.778 7.111 C 14.022 7.111 14.222 7.311 14.222 7.556 C 14.222 7.8 14.022 8 13.778 8 L 10.222 8 C 9.978 8 9.778 7.8 9.778 7.556 C 9.778 7.311 9.978 7.111 10.222 7.111 Z" style="fill: rgb(85, 209, 236);"/>
</svg>