<?xml version="1.0" encoding="utf-8"?>
<svg viewBox="0 0 16 12.8" xmlns="http://www.w3.org/2000/svg">
  <path d="M 2.4 3.2 C 2.4 0.737 5.067 -0.803 7.2 0.429 C 8.19 1 8.8 2.057 8.8 3.2 C 8.8 5.663 6.133 7.203 4 5.971 C 3.01 5.4 2.4 4.343 2.4 3.2 Z M 0 12.058 C 0 9.595 1.995 7.6 4.458 7.6 L 6.743 7.6 C 9.205 7.6 11.2 9.595 11.2 12.058 C 11.2 12.468 10.868 12.8 10.458 12.8 L 0.743 12.8 C 0.333 12.8 0 12.468 0 12.058 Z M 12.6 7.8 L 12.6 6.2 L 11 6.2 C 10.668 6.2 10.4 5.933 10.4 5.6 C 10.4 5.268 10.668 5 11 5 L 12.6 5 L 12.6 3.4 C 12.6 3.068 12.868 2.8 13.2 2.8 C 13.533 2.8 13.8 3.068 13.8 3.4 L 13.8 5 L 15.4 5 C 15.733 5 16 5.268 16 5.6 C 16 5.933 15.733 6.2 15.4 6.2 L 13.8 6.2 L 13.8 7.8 C 13.8 8.133 13.533 8.4 13.2 8.4 C 12.868 8.4 12.6 8.133 12.6 7.8 Z" style="fill: rgb(255, 255, 255);"/>
</svg>