<?xml version="1.0" encoding="utf-8"?>
<svg viewBox="0 0 16 16" xmlns="http://www.w3.org/2000/svg">
  <path d="M 15.526 2.733 C 16.151 2.108 16.151 1.093 15.526 0.469 C 14.902 -0.156 13.887 -0.156 13.263 0.469 L 8 5.737 L 2.732 0.474 C 2.108 -0.151 1.093 -0.151 0.469 0.474 C -0.156 1.098 -0.156 2.113 0.469 2.738 L 5.736 8.001 L 0.474 13.27 C -0.151 13.894 -0.151 14.909 0.474 15.534 C 1.098 16.159 2.113 16.159 2.737 15.534 L 8 10.266 L 13.268 15.529 C 13.892 16.154 14.907 16.154 15.531 15.529 C 16.156 14.904 16.156 13.889 15.531 13.265 L 10.264 8.001 L 15.526 2.733 Z" style="fill: rgb(255, 255, 255);"/>
</svg>